<mxfile host="65bd71144e">
    <diagram id="BqLSz4NliBRNLOw9xbUb" name="Page-1">
        <mxGraphModel dx="782" dy="941" grid="1" gridSize="10" guides="1" tooltips="1" connect="1" arrows="1" fold="1" page="1" pageScale="1" pageWidth="850" pageHeight="1100" math="0" shadow="0">
            <root>
                <mxCell id="0"/>
                <mxCell id="1" parent="0"/>
                <mxCell id="28" value="" style="edgeStyle=none;html=1;" edge="1" parent="1" source="21" target="118">
                    <mxGeometry relative="1" as="geometry">
                        <mxPoint x="410" y="350" as="targetPoint"/>
                    </mxGeometry>
                </mxCell>
                <mxCell id="21" value="&lt;b&gt;Raw Data Input&lt;/b&gt;" style="swimlane;fontStyle=0;childLayout=stackLayout;horizontal=1;startSize=30;horizontalStack=0;resizeParent=1;resizeParentMax=0;resizeLast=0;collapsible=1;marginBottom=0;whiteSpace=wrap;html=1;fillColor=#b1ddf0;strokeColor=#10739e;" vertex="1" parent="1">
                    <mxGeometry x="170" y="300" width="150" height="90" as="geometry"/>
                </mxCell>
                <mxCell id="22" value="Source: Kaggle Toxic Comment Classification Challenge" style="text;strokeColor=none;fillColor=none;align=center;verticalAlign=middle;spacingLeft=4;spacingRight=4;overflow=hidden;points=[[0,0.5],[1,0.5]];portConstraint=eastwest;rotatable=0;whiteSpace=wrap;html=1;fontSize=12;spacingTop=2;spacingBottom=2;" vertex="1" parent="21">
                    <mxGeometry y="30" width="150" height="60" as="geometry"/>
                </mxCell>
                <mxCell id="118" value="Preprocessing" style="swimlane;startSize=20;horizontal=1;childLayout=treeLayout;horizontalTree=0;sortEdges=1;resizable=1;containerType=tree;fontSize=12;rounded=1;shadow=0;autosize=0;resizeHeight=1;fillColor=#b1ddf0;strokeColor=#10739e;" vertex="1" parent="1">
                    <mxGeometry x="370" y="185" width="140" height="320" as="geometry"/>
                </mxCell>
                <mxCell id="119" value="Clean and standardize text" style="whiteSpace=wrap;html=1;imageWidth=2;imageHeight=20;" vertex="1" parent="118">
                    <mxGeometry x="20" y="40" width="100" height="40" as="geometry"/>
                </mxCell>
                <mxCell id="120" value="Tokenize with &lt;b&gt;Ekphrasis&lt;/b&gt;: Split text, handle social media" style="whiteSpace=wrap;html=1;" vertex="1" parent="118">
                    <mxGeometry x="20" y="130" width="100" height="70" as="geometry"/>
                </mxCell>
                <mxCell id="121" value="" style="edgeStyle=elbowEdgeStyle;elbow=vertical;html=1;rounded=1;curved=0;sourcePerimeterSpacing=0;targetPerimeterSpacing=0;startSize=6;endSize=6;" edge="1" parent="118" source="119" target="120">
                    <mxGeometry relative="1" as="geometry"/>
                </mxCell>
                <mxCell id="124" value="" style="edgeStyle=elbowEdgeStyle;elbow=vertical;html=1;rounded=1;curved=0;sourcePerimeterSpacing=0;targetPerimeterSpacing=0;startSize=6;endSize=6;" edge="1" target="125" source="120" parent="118">
                    <mxGeometry relative="1" as="geometry">
                        <mxPoint x="470" y="305" as="sourcePoint"/>
                    </mxGeometry>
                </mxCell>
                <mxCell id="125" value="Annotate hashtags and patterns" style="whiteSpace=wrap;html=1;" vertex="1" parent="118">
                    <mxGeometry x="20" y="250" width="100" height="50" as="geometry"/>
                </mxCell>
                <mxCell id="145" value="Modelliing" style="swimlane;whiteSpace=wrap;html=1;fontStyle=1;fillStyle=auto;fillColor=#b1ddf0;strokeColor=#10739e;" vertex="1" parent="1">
                    <mxGeometry x="600" y="5" width="1050" height="690" as="geometry"/>
                </mxCell>
                <mxCell id="158" value="" style="edgeStyle=orthogonalEdgeStyle;html=1;exitX=0.5;exitY=1;exitDx=0;exitDy=0;entryX=0.442;entryY=0.017;entryDx=0;entryDy=0;entryPerimeter=0;" edge="1" parent="145" source="146" target="149">
                    <mxGeometry relative="1" as="geometry"/>
                </mxCell>
                <mxCell id="160" value="" style="edgeStyle=orthogonalEdgeStyle;html=1;exitX=0.5;exitY=1;exitDx=0;exitDy=0;" edge="1" parent="145" source="146" target="159">
                    <mxGeometry relative="1" as="geometry"/>
                </mxCell>
                <mxCell id="146" value="Preprocessed Tokens" style="rounded=0;whiteSpace=wrap;html=1;" vertex="1" parent="145">
                    <mxGeometry x="470" y="40" width="110" height="40" as="geometry"/>
                </mxCell>
                <mxCell id="272" style="edgeStyle=orthogonalEdgeStyle;html=1;entryX=0.5;entryY=0;entryDx=0;entryDy=0;exitX=0.5;exitY=1;exitDx=0;exitDy=0;" edge="1" parent="145" source="149" target="228">
                    <mxGeometry relative="1" as="geometry"/>
                </mxCell>
                <mxCell id="149" value="Train" style="whiteSpace=wrap;html=1;rounded=0;" vertex="1" parent="145">
                    <mxGeometry x="70" y="110" width="120" height="60" as="geometry"/>
                </mxCell>
                <mxCell id="159" value="Val" style="whiteSpace=wrap;html=1;rounded=0;" vertex="1" parent="145">
                    <mxGeometry x="745" y="110" width="120" height="60" as="geometry"/>
                </mxCell>
                <mxCell id="193" value="Evaluate and output best model and metrics" style="whiteSpace=wrap;html=1;rounded=0;" vertex="1" parent="145">
                    <mxGeometry x="230" y="590" width="220" height="40" as="geometry"/>
                </mxCell>
                <mxCell id="194" value="" style="edgeStyle=orthogonalEdgeStyle;html=1;entryX=0.25;entryY=0;entryDx=0;entryDy=0;" edge="1" parent="145" source="190" target="193">
                    <mxGeometry relative="1" as="geometry">
                        <mxPoint x="266.2962962962963" y="550" as="targetPoint"/>
                        <Array as="points">
                            <mxPoint x="130" y="540"/>
                            <mxPoint x="285" y="540"/>
                        </Array>
                    </mxGeometry>
                </mxCell>
                <mxCell id="212" style="edgeStyle=orthogonalEdgeStyle;html=1;entryX=0.5;entryY=0;entryDx=0;entryDy=0;exitX=0.5;exitY=1;exitDx=0;exitDy=0;" edge="1" parent="145" source="149" target="208">
                    <mxGeometry relative="1" as="geometry"/>
                </mxCell>
                <mxCell id="270" style="edgeStyle=orthogonalEdgeStyle;html=1;entryX=0.75;entryY=0;entryDx=0;entryDy=0;" edge="1" parent="145" source="227" target="268">
                    <mxGeometry relative="1" as="geometry"/>
                </mxCell>
                <mxCell id="147" value="Test" style="whiteSpace=wrap;html=1;rounded=0;" vertex="1" parent="145">
                    <mxGeometry x="920" y="110" width="120" height="60" as="geometry"/>
                </mxCell>
                <mxCell id="157" style="edgeStyle=orthogonalEdgeStyle;html=1;entryX=0.5;entryY=0;entryDx=0;entryDy=0;exitX=0.5;exitY=1;exitDx=0;exitDy=0;" edge="1" parent="145" source="146" target="147">
                    <mxGeometry relative="1" as="geometry"/>
                </mxCell>
                <mxCell id="195" style="edgeStyle=orthogonalEdgeStyle;html=1;entryX=1;entryY=0.5;entryDx=0;entryDy=0;" edge="1" parent="145" source="147" target="193">
                    <mxGeometry relative="1" as="geometry">
                        <Array as="points">
                            <mxPoint x="980" y="610"/>
                        </Array>
                    </mxGeometry>
                </mxCell>
                <mxCell id="229" value="" style="edgeStyle=orthogonalEdgeStyle;html=1;entryX=1;entryY=0.5;entryDx=0;entryDy=0;" edge="1" parent="145" source="159" target="268">
                    <mxGeometry relative="1" as="geometry">
                        <mxPoint x="1295" y="330" as="sourcePoint"/>
                        <mxPoint x="780" y="615" as="targetPoint"/>
                        <Array as="points">
                            <mxPoint x="910" y="140"/>
                            <mxPoint x="910" y="540"/>
                        </Array>
                    </mxGeometry>
                </mxCell>
                <mxCell id="269" value="" style="edgeStyle=orthogonalEdgeStyle;html=1;entryX=0.25;entryY=0;entryDx=0;entryDy=0;" edge="1" parent="145" source="207" target="268">
                    <mxGeometry relative="1" as="geometry"/>
                </mxCell>
                <mxCell id="271" style="edgeStyle=orthogonalEdgeStyle;html=1;entryX=0.75;entryY=0;entryDx=0;entryDy=0;" edge="1" parent="145" source="268" target="193">
                    <mxGeometry relative="1" as="geometry"/>
                </mxCell>
                <mxCell id="268" value="&lt;span style=&quot;color: rgb(0, 0, 0);&quot;&gt;Train with&amp;nbsp;&lt;/span&gt;&lt;b&gt;Adaptive Focal Loss&lt;/b&gt;" style="whiteSpace=wrap;html=1;rounded=0;" vertex="1" parent="145">
                    <mxGeometry x="470" y="510" width="120" height="60" as="geometry"/>
                </mxCell>
                <mxCell id="276" value="" style="group;fillColor=#4696C8;fontColor=#ffffff;strokeColor=#314354;opacity=80;" vertex="1" connectable="0" parent="145">
                    <mxGeometry x="10" y="200" width="240" height="260" as="geometry"/>
                </mxCell>
                <mxCell id="201" value="" style="edgeStyle=orthogonalEdgeStyle;html=1;" edge="1" parent="276" source="149" target="200">
                    <mxGeometry relative="1" as="geometry"/>
                </mxCell>
                <mxCell id="188" value="Train models: Logistic Regression, SVM, Random Forest, XGBoost" style="whiteSpace=wrap;html=1;rounded=0;" vertex="1" parent="276">
                    <mxGeometry y="156" width="240" height="41.6" as="geometry"/>
                </mxCell>
                <mxCell id="275" value="" style="group;perimeterSpacing=0;" vertex="1" connectable="0" parent="276">
                    <mxGeometry x="5" width="230" height="260" as="geometry"/>
                </mxCell>
                <mxCell id="187" value="" style="edgeStyle=none;html=1;exitX=0.5;exitY=1;exitDx=0;exitDy=0;" edge="1" parent="275" source="200" target="186">
                    <mxGeometry relative="1" as="geometry">
                        <mxPoint x="106.5" y="62.400000000000006" as="sourcePoint"/>
                    </mxGeometry>
                </mxCell>
                <mxCell id="186" value="Vectorize using TF-IDF, Count, Word2Vec, FastText, GloVe, or SBERT" style="whiteSpace=wrap;html=1;rounded=0;" vertex="1" parent="275">
                    <mxGeometry y="83.2" width="230" height="41.6" as="geometry"/>
                </mxCell>
                <mxCell id="190" value="Tune hyperparameters with Optuna" style="whiteSpace=wrap;html=1;rounded=0;" vertex="1" parent="275">
                    <mxGeometry x="15" y="228.8" width="200" height="31.200000000000003" as="geometry"/>
                </mxCell>
                <mxCell id="200" value="Vectorizer Model" style="ellipse;whiteSpace=wrap;html=1;rounded=0;" vertex="1" parent="275">
                    <mxGeometry x="30" width="170" height="52" as="geometry"/>
                </mxCell>
                <mxCell id="189" value="" style="edgeStyle=none;html=1;" edge="1" parent="276" source="186" target="188">
                    <mxGeometry relative="1" as="geometry"/>
                </mxCell>
                <mxCell id="191" value="" style="edgeStyle=none;html=1;" edge="1" parent="276" source="188" target="190">
                    <mxGeometry relative="1" as="geometry"/>
                </mxCell>
                <mxCell id="277" value="" style="group;fillColor=#4696C8;fontColor=#ffffff;strokeColor=#432D57;opacity=80;" vertex="1" connectable="0" parent="145">
                    <mxGeometry x="270" y="200" width="240" height="260" as="geometry"/>
                </mxCell>
                <mxCell id="202" value="" style="edgeStyle=none;html=1;exitX=0.5;exitY=1;exitDx=0;exitDy=0;" edge="1" parent="277" source="208" target="204">
                    <mxGeometry relative="1" as="geometry">
                        <mxPoint x="111.5" y="60" as="sourcePoint"/>
                    </mxGeometry>
                </mxCell>
                <mxCell id="203" value="" style="edgeStyle=orthogonalEdgeStyle;html=1;entryX=0.25;entryY=0;entryDx=0;entryDy=0;" edge="1" parent="277" source="204" target="206">
                    <mxGeometry relative="1" as="geometry"/>
                </mxCell>
                <mxCell id="204" value="GloVe 300d embeddings for word representation&amp;nbsp;" style="whiteSpace=wrap;html=1;rounded=0;" vertex="1" parent="277">
                    <mxGeometry x="5" y="80" width="230" height="50" as="geometry"/>
                </mxCell>
                <mxCell id="205" value="" style="edgeStyle=orthogonalEdgeStyle;html=1;exitX=0.25;exitY=1;exitDx=0;exitDy=0;" edge="1" parent="277" source="206" target="207">
                    <mxGeometry relative="1" as="geometry"/>
                </mxCell>
                <mxCell id="208" value="RNN Model" style="ellipse;whiteSpace=wrap;html=1;rounded=0;" vertex="1" parent="277">
                    <mxGeometry x="35" width="170" height="50" as="geometry"/>
                </mxCell>
                <mxCell id="207" value="&lt;span style=&quot;color: rgb(0, 0, 0);&quot;&gt;Models used:GRU, LSTM, BiLSTM+Attention&lt;/span&gt;" style="whiteSpace=wrap;html=1;rounded=0;" vertex="1" parent="277">
                    <mxGeometry y="210" width="240" height="50" as="geometry"/>
                </mxCell>
                <mxCell id="278" value="" style="group;fillColor=#4696C8;fontColor=#ffffff;strokeColor=#3A5431;opacity=80;" vertex="1" connectable="0" parent="145">
                    <mxGeometry x="560" y="200" width="240" height="260" as="geometry"/>
                </mxCell>
                <mxCell id="222" value="" style="edgeStyle=none;html=1;exitX=0.5;exitY=1;exitDx=0;exitDy=0;" edge="1" parent="278" source="228" target="224">
                    <mxGeometry relative="1" as="geometry">
                        <mxPoint x="116.5" y="60" as="sourcePoint"/>
                    </mxGeometry>
                </mxCell>
                <mxCell id="223" value="" style="edgeStyle=orthogonalEdgeStyle;html=1;entryX=0.75;entryY=0;entryDx=0;entryDy=0;" edge="1" parent="278" source="224" target="206">
                    <mxGeometry relative="1" as="geometry">
                        <mxPoint x="125" y="150" as="targetPoint"/>
                    </mxGeometry>
                </mxCell>
                <mxCell id="224" value="Use pre-trained transformer models (e.g., BERT, RoBERTa) for contextual word representations" style="whiteSpace=wrap;html=1;rounded=0;" vertex="1" parent="278">
                    <mxGeometry x="10" y="80" width="230" height="50" as="geometry"/>
                </mxCell>
                <mxCell id="225" value="" style="edgeStyle=orthogonalEdgeStyle;html=1;exitX=0.75;exitY=1;exitDx=0;exitDy=0;" edge="1" parent="278" source="206" target="227">
                    <mxGeometry relative="1" as="geometry">
                        <mxPoint x="125" y="190" as="sourcePoint"/>
                    </mxGeometry>
                </mxCell>
                <mxCell id="227" value="&lt;span style=&quot;color: rgb(0, 0, 0);&quot;&gt;Train BERT and RoBERTa classifiers with Adaptive Focal Loss for multi-label classification&lt;/span&gt;" style="whiteSpace=wrap;html=1;rounded=0;" vertex="1" parent="278">
                    <mxGeometry y="210" width="240" height="50" as="geometry"/>
                </mxCell>
                <mxCell id="228" value="Transformer Model" style="ellipse;whiteSpace=wrap;html=1;rounded=0;" vertex="1" parent="278">
                    <mxGeometry x="40" width="170" height="50" as="geometry"/>
                </mxCell>
                <mxCell id="206" value="Stratified splitting and oversampling for class balance" style="whiteSpace=wrap;html=1;rounded=0;" vertex="1" parent="145">
                    <mxGeometry x="390" y="350" width="280" height="40" as="geometry"/>
                </mxCell>
                <mxCell id="280" style="edgeStyle=none;html=1;entryX=0;entryY=0.5;entryDx=0;entryDy=0;" edge="1" parent="1" source="120" target="145">
                    <mxGeometry relative="1" as="geometry"/>
                </mxCell>
            </root>
        </mxGraphModel>
    </diagram>
</mxfile>